<svg xmlns="http://www.w3.org/2000/svg" width="800" height="400" viewBox="0 0 800 400">
  <defs>
    <linearGradient id="bg" x1="0" y1="0" x2="1" y2="1">
      <stop offset="0%" stop-color="#2C3E50"/>
      <stop offset="50%" stop-color="#3E4F61"/>
      <stop offset="100%" stop-color="#1A252F"/>
    </linearGradient>
    <linearGradient id="sky" x1="0" y1="0" x2="0" y2="1">
      <stop offset="0%" stop-color="#4A6274"/>
      <stop offset="100%" stop-color="#2C3E50"/>
    </linearGradient>
  </defs>
  <rect width="800" height="400" fill="url(#bg)"/>
  <!-- Buildings silhouette -->
  <rect x="50" y="180" width="80" height="220" fill="#1F2D3A" opacity="0.7"/>
  <rect x="140" y="140" width="60" height="260" fill="#1F2D3A" opacity="0.6"/>
  <rect x="220" y="200" width="100" height="200" fill="#1F2D3A" opacity="0.7"/>
  <rect x="350" y="120" width="70" height="280" fill="#1F2D3A" opacity="0.65"/>
  <rect x="450" y="160" width="90" height="240" fill="#1F2D3A" opacity="0.7"/>
  <rect x="560" y="190" width="60" height="210" fill="#1F2D3A" opacity="0.6"/>
  <rect x="640" y="150" width="80" height="250" fill="#1F2D3A" opacity="0.7"/>
  <rect x="740" y="170" width="60" height="230" fill="#1F2D3A" opacity="0.65"/>
  <!-- Crane -->
  <rect x="380" y="40" width="6" height="360" fill="#1F2D3A" opacity="0.5"/>
  <rect x="340" y="50" width="120" height="5" fill="#1F2D3A" opacity="0.5"/>
  <!-- Windows glow -->
  <rect x="70" y="210" width="12" height="10" fill="#FFB74D" opacity="0.3"/>
  <rect x="95" y="250" width="12" height="10" fill="#FFB74D" opacity="0.25"/>
  <rect x="160" y="170" width="12" height="10" fill="#FFB74D" opacity="0.3"/>
  <rect x="245" y="230" width="12" height="10" fill="#FFB74D" opacity="0.25"/>
  <rect x="280" y="270" width="12" height="10" fill="#FFB74D" opacity="0.3"/>
  <rect x="470" y="200" width="12" height="10" fill="#FFB74D" opacity="0.3"/>
  <rect x="500" y="240" width="12" height="10" fill="#FFB74D" opacity="0.25"/>
  <rect x="660" y="190" width="12" height="10" fill="#FFB74D" opacity="0.3"/>
  <rect x="685" y="230" width="12" height="10" fill="#FFB74D" opacity="0.25"/>
</svg>
